<svg xmlns="http://www.w3.org/2000/svg" xmlns:xlink="http://www.w3.org/1999/xlink" viewBox="0 0 540 540"><defs><style>.cls-1{isolation:isolate;}.cls-2{fill:url(#linear-gradient);}.cls-3{fill:url(#linear-gradient-2);}.cls-4{mix-blend-mode:screen;opacity:0.25;fill:url(#linear-gradient-3);}</style><linearGradient id="linear-gradient" x1="156.78" y1="384.22" x2="405.72" y2="135.28" gradientUnits="userSpaceOnUse"><stop offset="0" stop-color="#150bc1"/><stop offset="0.12" stop-color="#2220c9"/><stop offset="0.3" stop-color="#333cd4"/><stop offset="0.47" stop-color="#3d4ddb"/><stop offset="0.59" stop-color="#4153dd"/></linearGradient><linearGradient id="linear-gradient-2" x1="152.67" y1="388.33" x2="405.72" y2="135.28" gradientUnits="userSpaceOnUse"><stop offset="0" stop-color="#a43a2e"/><stop offset="1" stop-color="#dd0202"/></linearGradient><linearGradient id="linear-gradient-3" x1="148.59" y1="384.25" x2="401.64" y2="131.2" xlink:href="#linear-gradient-2"/></defs><g class="cls-1"><g id="Calque_1" data-name="Calque 1"><path class="cls-2" d="M351.94,189.06v-9c-19.88,14.77-20.94,29-26.22,36.53-9.35,13.41-17.69,11.67-19.25,6.81-2.42-7.53.84-27.33-6.12-27.31-27.48.05-49.38,1.24-67,35s-30,20-30,20,22.58-55.24,39.53-73.9c12.77-14.06,43.73-18.71,69.32-24.63a164.44,164.44,0,0,0,39.76-14.94V81.5H210.56V189.06H103V330.44H210.56v17.41c21.41-15.18,22.4-29.91,27.81-37.67,9.35-13.41,17.69-11.67,19.25-6.81,2.42,7.53-.84,27.33,6.12,27.31,27.48,0,49.38-1.24,67-35s30.05-20,30.05-20-22.59,55.24-39.53,73.9c-12.77,14.06-43.73,18.71-69.32,24.63A165.12,165.12,0,0,0,210.56,390v48H351.94V330.44H459.5V189.06ZM281.25,295.41c-21.89-7.32-35.93-26.16-33.06-42,1.9-10.53,11.84-16.49,20.74-13.41s12.32,9,12.32,9,3.46-6,12.32-9,18.84,2.88,20.74,13.41C317.18,269.25,303.14,288.09,281.25,295.41Z"/><path class="cls-3" d="M210,189.06h.56V81.5H351.94v56.11a164.44,164.44,0,0,1-39.76,14.94c-25.59,5.92-56.55,10.57-69.32,24.63-6.24,6.87-13.23,18.7-19.59,30.9Q216.28,198.86,210,189.06Zm44,54A15.17,15.17,0,0,1,268.93,240c8.86,3.07,12.32,9,12.32,9s3.46-6,12.32-9,18.84,2.88,20.74,13.41c1.79,9.91-3,21-12.22,29.68,5.26,3.73,10.57,7.36,16,10.85q4.95,3.18,10.05,6.37c.87-1.47,1.73-3,2.58-4.63,17.59-33.79,30.05-20,30.05-20s-6.83,16.69-15.79,34.82c12.24,7.14,25,14,38.08,20H459.5V189.06H351.94v-9c-19.88,14.77-20.94,29-26.22,36.53-9.35,13.41-17.69,11.67-19.25,6.81-2.42-7.53.84-27.33-6.12-27.31-25.68,0-46.48,1.1-63.45,28.8Q245.11,234.27,254,243Z"/><path class="cls-4" d="M327.28,213.92c4.15-8,6.89-20.69,24.66-33.89v9H459.5v104a347.14,347.14,0,0,1-99.92-51.83A390.42,390.42,0,0,1,327.28,213.92ZM276.75,160.7c11.48-3.1,24-5.5,35.43-8.15a164.44,164.44,0,0,0,39.76-14.94V81.5H231.62C238.55,111.51,256.8,137.37,276.75,160.7Z"/></g></g></svg>