<svg id="Calque_1" data-name="Calque 1" xmlns="http://www.w3.org/2000/svg" xmlns:xlink="http://www.w3.org/1999/xlink" viewBox="0 0 540 540"><defs><style>.cls-1{fill:url(#New_Gradient_Swatch_5);}.cls-2{fill:url(#New_Gradient_Swatch_5-2);}.cls-3{fill:#fff;opacity:0.3;}</style><linearGradient id="New_Gradient_Swatch_5" x1="270.46" y1="-214.42" x2="270.46" y2="184.19" gradientUnits="userSpaceOnUse"><stop offset="0" stop-color="#950308"/><stop offset="0.82" stop-color="#8c1500"/></linearGradient><linearGradient id="New_Gradient_Swatch_5-2" x1="272.36" y1="205.64" x2="272.36" y2="496.53" xlink:href="#New_Gradient_Swatch_5"/></defs><path class="cls-1" d="M115.79,194.08a8.67,8.67,0,0,1,7.83-4.66,8.58,8.58,0,0,1,7.61,5l29,63.79h76.57a8.57,8.57,0,0,1,7.14,3.82l7.41,11.13,7-11a8.56,8.56,0,0,1,7.23-4h14.76L314,163.36a8.58,8.58,0,0,1,16.5,1.19L358,302.33l30.34-113.9a8.58,8.58,0,0,1,16.46-.39l28.46,89.37,17.36-27.62a8.57,8.57,0,0,1,7.26-4H521.6c7.5-46.13-3.47-90.34-20.65-122.36-25.8-48.1-69-78.25-112.64-78.7h-1c-31.23,0-75.76,14.45-116.81,80.11C229,58.44,183.88,44.45,152.62,44.72c-43.68.45-86.84,30.6-112.64,78.7C21.26,158.31,9.89,207.69,21.8,258.24H82.85Z"/><path class="cls-2" d="M438,302.18a8.57,8.57,0,0,1-15.43-2l-25.17-79L365.1,342.32a8.57,8.57,0,0,1-8.28,6.37h-.28a8.57,8.57,0,0,1-8.13-6.89L319.73,198.4l-25.28,71.28a8.56,8.56,0,0,1-8.08,5.71H270.25L258.69,293.5a8.61,8.61,0,0,1-7.15,4,8.52,8.52,0,0,1-7.22-3.82l-12.16-18.25h-77.5a8.56,8.56,0,0,1-7.81-5L122.94,217.7l-27.22,53a8.59,8.59,0,0,1-7.63,4.66H26.77A184.64,184.64,0,0,0,46.69,316.2c41.08,63.29,113,119.5,220,171.84l3.77,1.85,3.77-1.85c107-52.34,178.92-108.55,220-171.84A183.21,183.21,0,0,0,518,262.93H462.63Z"/><path class="cls-3" d="M266.7,488l3.77,1.85,1.48-.73c-3.3-1.82-6.56-3.73-9.74-5.74-31.3-19.86-56.81-47.53-80.72-75.85-26.22-31.07-51.18-63.59-69.43-99.92q-4.2-8.36-8-17.08c-2.9-6.78-5.55-13.72-7.92-20.76l-.47.92a8.59,8.59,0,0,1-7.63,4.66H26.77A184.64,184.64,0,0,0,46.69,316.2C87.77,379.49,159.73,435.7,266.7,488Z"/><path class="cls-3" d="M21.8,258.24H82.85l6.51-12.68C85,226,83.26,205.85,85.44,186c6-54.72,40.88-106.42,84.72-138.59.49-.37,1-.71,1.51-1.07a102.06,102.06,0,0,0-17.83-1.62c-44.2.54-87.78,30.93-113.76,79.36a199.31,199.31,0,0,0-22.89,82.78c0,.11,0,.21,0,.32-.09,1.88-.16,3.76-.2,5.65A185.16,185.16,0,0,0,21.8,258.24Z"/></svg>