<svg xmlns="http://www.w3.org/2000/svg" xmlns:xlink="http://www.w3.org/1999/xlink" viewBox="0 0 270 270"><defs><style>.cls-1{isolation:isolate;}.cls-2{fill:url(#linear-gradient);}.cls-3{fill:url(#linear-gradient-2);}.cls-4{fill:url(#linear-gradient-3);}.cls-5{mix-blend-mode:screen;opacity:0.25;fill:url(#linear-gradient-4);}</style><linearGradient id="linear-gradient" x1="50.65" y1="218.16" x2="216.55" y2="52.26" gradientUnits="userSpaceOnUse"><stop offset="0" stop-color="#1a0ec1"/><stop offset="0.17" stop-color="#251fcd"/><stop offset="0.41" stop-color="#3030d9"/><stop offset="0.59" stop-color="#3436dd"/></linearGradient><linearGradient id="linear-gradient-2" x1="118.89" y1="149.96" x2="148.3" y2="120.55" xlink:href="#linear-gradient"/><linearGradient id="linear-gradient-3" x1="47.91" y1="220.9" x2="216.55" y2="52.26" gradientUnits="userSpaceOnUse"><stop offset="0" stop-color="#a43547"/><stop offset="1" stop-color="#dd0a08"/></linearGradient><linearGradient id="linear-gradient-4" x1="45.19" y1="218.18" x2="213.83" y2="49.54" xlink:href="#linear-gradient-3"/></defs><g class="cls-1"><g id="Calque_1" data-name="Calque 1"><path class="cls-2" d="M180.7,254V182.32h71.69V88.1H180.7v-6c-13.24,9.84-13.95,19.3-17.47,24.35-6.23,8.93-11.78,7.77-12.83,4.53-1.61-5,.56-18.21-4.08-18.2-18.31,0-32.9.83-44.62,23.34s-20,13.33-20,13.33,15-36.81,26.34-49.25c8.51-9.37,29.15-12.47,46.2-16.41a109.63,109.63,0,0,0,26.49-10V16.42H86.49V88.1H14.81v94.22H86.49v11.6c14.26-10.11,14.92-19.93,18.53-25.1,6.23-8.94,11.79-7.78,12.83-4.54,1.61,5-.56,18.21,4.08,18.2,18.31,0,32.9-.83,44.63-23.34s20-13.33,20-13.33-15.05,36.81-26.34,49.25c-8.51,9.37-29.14,12.47-46.19,16.42A109.62,109.62,0,0,0,86.49,222v32"/><path class="cls-3" d="M133.6,159c-14.59-4.88-23.95-17.43-22-28,1.27-7,7.89-11,13.83-8.94a15.69,15.69,0,0,1,8.21,6,15.63,15.63,0,0,1,8.21-6c5.93-2,12.55,1.92,13.82,8.94C157.54,141.54,148.19,154.09,133.6,159Z"/><path class="cls-4" d="M86.11,88.1h.38V16.42H180.7V53.81a109.63,109.63,0,0,1-26.49,10c-17.05,3.94-37.69,7-46.2,16.41C103.86,84.76,99.2,92.64,95,100.77Q90.29,94.62,86.11,88.1Zm29.34,36a10.13,10.13,0,0,1,9.94-2,15.69,15.69,0,0,1,8.21,6,15.63,15.63,0,0,1,8.21-6c5.93-2,12.55,1.92,13.82,8.94,1.19,6.6-2,14-8.14,19.78,3.5,2.48,7,4.91,10.65,7.23,2.2,1.41,4.44,2.83,6.7,4.25.58-1,1.15-2,1.72-3.09,11.72-22.52,20-13.33,20-13.33S182,156.93,176.06,169c8.16,4.77,16.65,9.31,25.38,13.31h50.95V88.1H180.7v-6c-13.24,9.84-13.95,19.3-17.47,24.35-6.23,8.93-11.78,7.77-12.83,4.53-1.61-5,.56-18.21-4.08-18.2-17.11,0-31,.74-42.28,19.2Q109.51,118.22,115.45,124.06Z"/><path class="cls-5" d="M164.27,104.67c2.77-5.31,4.59-13.79,16.43-22.59v6h71.69v69.31a231.3,231.3,0,0,1-66.59-34.54A262,262,0,0,1,164.27,104.67ZM130.6,69.2c7.65-2.07,16-3.67,23.61-5.43a109.63,109.63,0,0,0,26.49-10V16.42H100.52C105.14,36.42,117.3,53.65,130.6,69.2Z"/></g></g></svg>